<svg width="156" height="143" viewBox="0 0 156 143" fill="none" xmlns="http://www.w3.org/2000/svg">
<g filter="url(#filter0_d_209_183)">
<path fill-rule="evenodd" clip-rule="evenodd" d="M76.6625 1.76504C90.5334 0.111983 97.1799 18.0351 108.982 24.9683C122.032 32.6346 142.096 31.5831 149.101 44.3204C156.128 57.0979 148.984 72.8153 142.444 85.8115C136.479 97.6637 125.632 106.097 114.162 113.749C102.726 121.378 90.6202 127.814 76.6625 129.695C60.8855 131.821 40.3687 136.455 30.2725 125.054C19.5789 112.979 36.9055 94.3971 32.146 79.4282C27.6389 65.2534 -0.580836 58.4096 4.64216 44.4461C9.90975 30.3633 36.307 40.0564 49.882 32.0115C62.047 24.8022 62.3285 3.47328 76.6625 1.76504Z" fill="#5274C3"/>
<path fill-rule="evenodd" clip-rule="evenodd" d="M77.168 14.3617C84.8384 17.251 92.0556 21.1199 100.29 21.9548C113.338 23.2779 130.301 11.6888 139.149 20.6467C147.652 29.2554 130.681 43.1072 132.565 54.6307C134.25 64.94 149.914 71.0799 149.093 81.4784C148.307 91.4365 137.143 98.0676 128.648 104.24C121.066 109.749 110.835 110.486 102.661 115.218C93.326 120.62 88.1078 135.225 77.168 134.036C65.5724 132.777 62.07 118.115 54.4075 109.976C49.3613 104.616 45.8987 98.0158 39.5199 94.0494C29.7728 87.9888 12.6524 90.8104 7.73186 80.9537C3.30323 72.0823 17.4451 63.7375 19.6147 54.1759C21.8344 44.3937 16.536 33.8702 20.524 24.5791C24.8087 14.5967 31.34 2.33806 42.7482 0.280262C55.2198 -1.96937 65.4013 9.92948 77.168 14.3617Z" fill="#E8EAF7"/>
</g>
<defs>
<filter id="filter0_d_209_183" x="0" y="0" width="156" height="142.105" filterUnits="userSpaceOnUse" color-interpolation-filters="sRGB">
<feFlood flood-opacity="0" result="BackgroundImageFix"/>
<feColorMatrix in="SourceAlpha" type="matrix" values="0 0 0 0 0 0 0 0 0 0 0 0 0 0 0 0 0 0 127 0" result="hardAlpha"/>
<feOffset dy="4"/>
<feGaussianBlur stdDeviation="2"/>
<feComposite in2="hardAlpha" operator="out"/>
<feColorMatrix type="matrix" values="0 0 0 0 0 0 0 0 0 0 0 0 0 0 0 0 0 0 0.25 0"/>
<feBlend mode="normal" in2="BackgroundImageFix" result="effect1_dropShadow_209_183"/>
<feBlend mode="normal" in="SourceGraphic" in2="effect1_dropShadow_209_183" result="shape"/>
</filter>
</defs>
</svg>
