<svg width="548" height="338" viewBox="0 0 548 338" fill="none" xmlns="http://www.w3.org/2000/svg">
<g clip-path="url(#clip0_274_350)">
<g style="mix-blend-mode:screen" opacity="0.83">
<path d="M500.264 98.1403C479.092 76.7873 450.617 64.2468 420.571 63.0431L420.579 62.9562C413.007 62.4472 405.402 62.8602 397.93 64.1859L396.867 64.3408C395.733 64.5041 394.61 64.7302 393.501 65.018C354.905 73.4895 318.087 104.131 282.215 138.879C244.819 100.805 204.756 67.5462 154.707 64.7366L154.713 64.6671C152.558 64.4844 150.35 64.5072 148.004 64.5182L146.251 64.5446C114.495 64.9731 84.2088 77.9994 62.0565 100.758C39.9041 123.516 27.6998 154.142 28.1283 185.899C28.5568 217.656 41.5831 247.941 64.3414 270.094C87.0998 292.246 117.726 304.45 149.483 304.022L152.113 303.965L152.269 303.978C195.392 302.192 238.469 265.237 281.08 222.852C320.936 264.53 363.132 302.766 416.108 302.445C439.71 302.303 462.743 295.188 482.314 281.996C501.886 268.804 517.122 250.122 526.11 228.298C535.098 206.474 537.436 182.481 532.83 159.332C528.225 136.183 516.881 114.912 500.225 98.1895L500.264 98.1403ZM151.379 245.336L150.702 245.278L149.14 245.321C132.931 245.552 117.293 239.335 105.668 228.037C94.0425 216.739 87.3814 201.286 87.15 185.076C86.9186 168.867 93.1358 153.229 104.434 141.604C115.732 129.978 131.186 123.317 147.395 123.086C178.912 122.958 210.124 149.13 240.71 180.203C208.821 211.962 173.04 245.23 151.376 245.371L151.379 245.336ZM416.749 243.705C386.992 243.72 354.214 214.124 322.651 181.359C352.21 152.727 382.343 127.032 406.438 122.162C409.303 121.738 412.194 121.51 415.09 121.478L415.855 121.542L416.15 121.568C432.359 121.485 447.936 127.844 459.456 139.246C470.976 150.649 477.494 166.16 477.577 182.369C477.66 198.577 471.301 214.154 459.899 225.674C448.496 237.194 432.985 243.712 416.776 243.795L416.749 243.705Z" fill="#FF40FF"/>
</g>
<g style="mix-blend-mode:screen" opacity="0.42">
<path d="M481.508 92.8913C460.342 71.5399 431.873 58.9998 401.833 57.7956C394.255 57.2849 386.644 57.6973 379.167 59.0238L378.103 59.1787C376.97 59.3444 375.847 59.5705 374.738 59.8559C336.141 68.3274 299.306 98.9675 263.452 133.717C226.055 95.643 185.993 62.3841 135.943 59.5746L135.952 59.4703C133.797 59.2875 131.59 59.3103 129.226 59.3199L127.473 59.3463C95.8219 59.9255 65.6874 73.0142 43.6596 95.7503C21.6319 118.486 9.50316 149.02 9.9257 180.674C10.3482 212.328 23.2876 242.527 45.9144 264.667C68.5412 286.807 99.0143 299.087 130.67 298.821L133.318 298.765L133.457 298.777C176.579 296.991 219.657 260.036 262.25 217.649C302.123 259.329 344.302 297.563 397.278 297.243C420.882 297.105 443.919 289.993 463.494 276.801C483.068 263.609 498.306 244.925 507.293 223.098C516.28 201.271 518.615 177.274 514.004 154.124C509.393 130.974 498.042 109.703 481.377 92.9853L481.508 92.8913ZM132.623 240.087L131.928 240.028L130.386 240.055C114.178 240.289 98.5419 234.075 86.9162 222.78C75.2905 211.485 68.6279 196.034 68.3939 179.827C68.16 163.62 74.3739 147.983 85.6688 136.358C96.9637 124.732 112.414 118.069 128.621 117.835C160.139 117.708 191.368 143.881 221.937 174.952C190.082 206.715 154.284 239.981 132.62 240.122L132.623 240.087ZM398.01 238.458C368.253 238.472 335.458 208.875 303.895 176.11C333.454 147.478 363.587 121.783 387.682 116.913C390.553 116.49 393.45 116.262 396.352 116.23L397.116 116.295L397.394 116.319C413.603 116.233 429.182 122.59 440.703 133.991C452.225 145.392 458.745 160.903 458.831 177.112C458.916 193.32 452.559 208.899 441.158 220.42C429.757 231.942 414.246 238.462 398.037 238.548L398.01 238.458Z" fill="#00BDFF"/>
</g>
<path d="M153.354 283.346C94.0914 283.711 45.6029 232.987 45.1823 170.253C44.8011 140.624 55.7257 111.963 75.7323 90.1051C85.2066 79.6351 96.7118 71.2019 109.548 65.3186C122.384 59.4352 136.283 56.2246 150.399 55.8822L151.959 55.8569C154.078 55.8441 156.052 55.889 157.986 56.0005L155.213 111.602C154.327 111.526 153.363 111.532 152.295 111.547L151.617 111.489C121.814 112.042 97.6075 138.24 97.7898 169.937C97.9803 201.949 122.756 227.855 153 227.672L154.404 227.634L155.029 227.687L155.288 258.69L155.859 283.331L155.737 283.321L153.354 283.346Z" fill="url(#paint0_linear_274_350)"/>
<path d="M468.136 87.924C458.573 77.5646 447.005 69.2554 434.134 63.5002C421.263 57.7449 407.358 54.6636 393.26 54.443C387.248 54.3443 381.24 54.7956 375.31 55.7912C374.293 55.9471 373.286 56.1657 372.296 56.4458L385.67 110.301C383.594 110.879 381.449 111.174 379.294 111.178L381.325 111.175L383.331 110.837C386.082 110.373 388.865 110.129 391.655 110.108L392.35 110.167L392.611 110.189C422.337 110.54 446.677 136.427 446.877 167.915C447.067 199.927 422.685 226.128 392.354 226.303L392.691 281.976C451.972 281.612 499.873 230.294 499.486 167.581C499.509 138.015 488.304 109.544 468.136 87.924Z" fill="url(#paint1_linear_274_350)"/>
<path d="M295.492 152.187C253.365 104.681 209.798 55.5639 150.957 55.9119L151.292 111.602C187.176 111.372 222.738 151.478 257.134 190.26C297.248 235.496 338.722 282.247 392.696 281.924L393.464 226.222C362.449 226.41 327.877 188.681 295.492 152.187Z" fill="url(#paint2_radial_274_350)"/>
<path d="M155.368 283.342L155.031 227.67C177.236 227.54 215.983 186.332 247.113 153.213C294.536 102.781 343.62 50.5304 396.651 54.503L392.99 110.046C364.047 107.889 321.762 152.84 284.476 192.509C240.636 239.078 199.272 283.075 155.368 283.342Z" fill="url(#paint3_radial_274_350)"/>
<path d="M494.242 98.5573C473.067 77.2086 444.594 64.669 414.55 63.4601L414.557 63.3732C406.984 62.87 399.379 63.2887 391.907 64.6203L390.845 64.7578C389.711 64.9211 388.588 65.1472 387.479 65.435C348.882 73.9238 312.048 104.547 276.194 139.296C238.778 101.238 198.717 67.9617 148.685 65.1536L148.692 65.0667C146.52 64.8825 144.332 64.8894 141.966 64.9164L140.214 64.9428C108.735 65.7731 78.8505 78.9691 57.0307 101.673C35.2109 124.378 23.2122 154.763 23.6328 186.25C24.0533 217.736 36.8592 247.79 59.2775 269.904C81.6959 292.017 111.922 304.41 143.412 304.4L146.042 304.343L146.199 304.356C189.321 302.57 232.399 265.615 274.991 223.228C314.865 264.908 357.043 303.16 410.019 302.822C433.62 302.676 456.652 295.559 476.221 282.366C495.79 269.172 511.024 250.49 520.01 228.666C528.995 206.843 531.331 182.85 526.725 159.703C522.119 136.555 510.775 115.285 494.119 98.5644L494.242 98.5573ZM145.358 245.753L144.663 245.694L143.12 245.721C126.911 245.954 111.272 239.739 99.6448 228.443C88.0176 217.146 81.3541 201.693 81.1204 185.484C80.8866 169.274 87.1017 153.636 98.3983 142.008C109.695 130.381 125.148 123.718 141.357 123.484C172.875 123.357 204.104 149.53 234.673 180.601C202.817 212.381 167.019 245.647 145.355 245.788L145.358 245.753ZM410.743 244.141C380.987 244.138 348.193 214.541 316.63 181.776C346.189 153.144 376.32 127.466 400.415 122.596C403.279 122.157 406.17 121.928 409.067 121.912L409.849 121.978L410.179 122.006C426.388 121.921 441.967 128.278 453.488 139.679C465.01 151.08 471.53 166.591 471.616 182.799C471.701 199.008 465.344 214.587 453.943 226.108C442.542 237.63 427.031 244.15 410.822 244.235L410.743 244.141Z" fill="url(#paint4_radial_274_350)"/>
<g style="mix-blend-mode:multiply">
<path d="M275.045 223.215L319.753 178.802L324.733 187.154L291.496 239.961L275.045 223.215Z" fill="#776692"/>
</g>
<path d="M333.039 166.819L332.195 166.66L339.93 124.782L291.649 125.063L281.427 117.633L281.942 116.924L291.933 124.195L340.968 123.89L333.039 166.819Z" fill="#9F1D1D"/>
<path d="M499.73 202.259L499.465 202.079L470.406 183.126L445.144 183.188L445.13 182.312L470.673 182.256L499.664 201.185L528.74 177.203L529.297 177.863L499.73 202.259Z" fill="#9F1D1D"/>
<path d="M324.815 269.97L313.588 227.955L313.951 227.81L349.305 213.393L349.269 206.808L350.145 206.795L350.184 213.975L314.631 228.463L325.657 269.744L324.815 269.97Z" fill="#9F1D1D"/>
<path d="M158.007 126.121L147.268 95.2795L187.057 73.3616L193.33 64.4067L194.04 64.9045L187.556 74.0865L148.319 95.6837L158.836 125.842L158.007 126.121Z" fill="#9F1D1D"/>
<path d="M46.8251 256.755L46.8293 255.88L86.2853 255.638L92.1555 219.239L113.633 210.156L113.967 210.954L92.944 219.848L87.0342 256.507L86.649 256.509L46.8251 256.755Z" fill="#9F1D1D"/>
<path d="M446.088 178.035L470.518 177.884L499.706 201.714L469.031 182.624L445.128 182.75L446.088 178.035Z" fill="#9F1D1D"/>
<path d="M351.775 208.421L350.781 214.568L314.109 228.209L349.754 213.676L348.575 205.909L351.775 208.421Z" fill="#9F1D1D"/>
<path d="M285.237 113.773L293.004 123.533L324.363 124.442L290.804 125.534L280.902 118.043L285.237 113.773Z" fill="#9F1D1D"/>
<path d="M195.181 65.2814L188.309 74.0804L168.247 84.2287L186.246 73.4328L192.138 64.0081L195.181 65.2814Z" fill="#9F1D1D"/>
<path d="M117.934 214.546L92.5489 219.552L112.096 208.66L117.934 214.546Z" fill="#9F1D1D"/>
<path opacity="0.5" d="M160.103 126.387L149.824 96.0915L189.375 74.5034C189.375 74.5034 155.483 93.3507 154.198 97.1451C152.914 100.939 160.103 126.387 160.103 126.387Z" fill="#FFA1A1"/>
<path opacity="0.5" d="M46.34 255.664L85.3972 253.725L91.4477 217.883C91.4477 217.883 86.3442 249.99 82.018 251.881C77.6917 253.772 46.34 255.664 46.34 255.664Z" fill="#FFA1A1"/>
<path opacity="0.5" d="M326.888 271.126L315.466 228.937L351.522 215.121C351.522 215.121 321.66 226.276 319.138 229.598C316.616 232.92 326.888 271.126 326.888 271.126Z" fill="#FFA1A1"/>
<path opacity="0.5" d="M290.119 126.177L338.84 125.25L330.88 168.334C330.88 168.334 337.916 130.16 335.109 128.172C332.302 126.183 290.119 126.177 290.119 126.177Z" fill="#FFA1A1"/>
<path opacity="0.5" d="M470.163 176.296L499.676 199.803L528.945 176.031C528.945 176.031 504.453 196.515 499.658 196.301C494.862 196.087 470.163 176.296 470.163 176.296Z" fill="#FFA1A1"/>
<path d="M315.466 228.937L318.767 230.459L319.368 238.439L318.44 238.448L315.466 228.937Z" fill="#FFA1A1"/>
<path d="M499.696 199.77L499.668 196.18L507.593 193.334L499.696 199.77Z" fill="#FFA1A1"/>
<path d="M85.3943 253.76L82.015 251.915L72.4007 253.831L85.3943 253.76Z" fill="#FFA1A1"/>
<path d="M149.79 96.0886L154.096 98.1516L155.42 107.506L149.79 96.0886Z" fill="#FFA1A1"/>
<path d="M111.361 237.146C111.361 237.146 128.149 249.299 149.803 247.408C171.458 245.516 221.225 194.286 221.225 194.286C221.225 194.286 172.664 242.853 148.664 244.948C124.664 247.043 111.361 237.146 111.361 237.146Z" fill="#FFA1A1"/>
<path d="M367.036 72.0328C367.036 72.0328 384.845 63.6888 415.792 65.1232C415.792 65.1232 396.259 56.2376 367.036 72.0328Z" fill="#FFA1A1"/>
<path d="M385.653 238.04C394.644 243.393 404.994 246.022 415.45 245.608C432.802 244.91 445.503 232.404 445.503 232.404C445.503 232.404 418.861 253.056 385.653 238.04Z" fill="#A1C9FF"/>
<path d="M93.4449 77.9371C93.4449 77.9371 121.231 65.2581 147.61 66.0602C173.99 66.8623 186.246 73.4328 186.246 73.4328C186.246 73.4328 145.695 50.4597 93.4449 77.9371Z" fill="#FFA1A1"/>
<g style="mix-blend-mode:soft-light">
<path d="M393.464 226.222C393.464 226.222 405.658 226.907 415.446 220.683L415.45 245.608C415.45 245.608 400.33 245.359 392.52 241.476L393.464 226.222Z" fill="#FFA1A1"/>
</g>
<g style="mix-blend-mode:multiply">
<path d="M437.958 136.65C437.958 136.65 452.235 139.611 461.073 150.565C461.073 150.565 453.908 134.537 428.58 125.055C432.026 128.65 435.163 132.528 437.958 136.65Z" fill="#776692"/>
</g>
<g style="mix-blend-mode:multiply">
<path d="M111.877 131.994C111.877 131.994 91.429 140.919 83.3911 170.063C83.3911 170.063 86.7354 157.254 101.794 147.907C101.794 147.907 109.385 133.935 111.877 131.994Z" fill="#776692"/>
</g>
<path style="mix-blend-mode:screen" d="M180.474 226.852L218.773 269.343C243.571 251.062 267.059 231.068 289.066 209.509C322.917 175.885 363.274 136.949 376.831 127.965L346.674 77.5873C323.872 95.0648 281.201 130.951 230.634 184.599C197.475 219.769 180.474 226.852 180.474 226.852Z" fill="url(#paint5_radial_274_350)"/>
</g>
<defs>
<linearGradient id="paint0_linear_274_350" x1="106.972" y1="282.697" x2="105.805" y2="55.9747" gradientUnits="userSpaceOnUse">
<stop stop-color="#FF6868"/>
<stop offset="0.15" stop-color="#FF6868"/>
<stop offset="0.46" stop-color="#FF4040"/>
<stop offset="0.68" stop-color="#FF1212"/>
<stop offset="0.8" stop-color="#FF0000"/>
<stop offset="0.83" stop-color="#DC0000"/>
<stop offset="0.88" stop-color="#B60000"/>
<stop offset="0.93" stop-color="#9B0000"/>
<stop offset="0.97" stop-color="#8B0000"/>
<stop offset="1" stop-color="#2C0085"/>
<stop offset="1" stop-color="#850000"/>
</linearGradient>
<linearGradient id="paint1_linear_274_350" x1="68153.5" y1="63464.8" x2="70518.2" y2="35583.1" gradientUnits="userSpaceOnUse">
<stop stop-color="#FF6868"/>
<stop offset="0.15" stop-color="#FF6868"/>
<stop offset="0.46" stop-color="#FF4040"/>
<stop offset="0.68" stop-color="#FF1212"/>
<stop offset="0.8" stop-color="#FF0000"/>
<stop offset="0.83" stop-color="#DC0000"/>
<stop offset="0.88" stop-color="#B60000"/>
<stop offset="0.93" stop-color="#9B0000"/>
<stop offset="0.97" stop-color="#8B0000"/>
<stop offset="1" stop-color="#850000"/>
</linearGradient>
<radialGradient id="paint2_radial_274_350" cx="0" cy="0" r="1" gradientUnits="userSpaceOnUse" gradientTransform="translate(276.937 168.467) rotate(-0.294923) scale(114.752 120.546)">
<stop stop-color="#FF2C2C"/>
<stop offset="0.27" stop-color="#FF3939"/>
<stop offset="0.83" stop-color="#FF5C5C"/>
<stop offset="1" stop-color="#FF6868"/>
</radialGradient>
<radialGradient id="paint3_radial_274_350" cx="0" cy="0" r="1" gradientUnits="userSpaceOnUse" gradientTransform="translate(-45208.1 50346.7) rotate(179.705) scale(14992.1 17221.8)">
<stop stop-color="#FF2C2C"/>
<stop offset="0.27" stop-color="#FF3939"/>
<stop offset="0.83" stop-color="#FF5C5C"/>
<stop offset="1" stop-color="#FF6868"/>
</radialGradient>
<radialGradient id="paint4_radial_274_350" cx="0" cy="0" r="1" gradientUnits="userSpaceOnUse" gradientTransform="translate(276.081 183.764) rotate(-0.35216) scale(198.007)">
<stop stop-color="#2C5CFF"/>
<stop offset="0.0001" stop-color="#FF2C2C"/>
<stop offset="0.25" stop-color="#FF3838"/>
<stop offset="0.76" stop-color="#FF1818"/>
<stop offset="1" stop-color="#FF0000"/>
</radialGradient>
<radialGradient id="paint5_radial_274_350" cx="0" cy="0" r="1" gradientUnits="userSpaceOnUse" gradientTransform="translate(245.271 199.091) rotate(-0.35216) scale(96.9889)">
<stop offset="0.01" stop-color="#FF4C4C"/>
<stop offset="0.23" stop-color="#B33535"/>
<stop offset="0.43" stop-color="#732222"/>
<stop offset="0.62" stop-color="#421414"/>
<stop offset="0.78" stop-color="#1E0909"/>
<stop offset="0.91" stop-color="#080202"/>
<stop offset="1"/>
</radialGradient>
<clipPath id="clip0_274_350">
<rect width="524.222" height="293.827" fill="white" transform="translate(25) rotate(4.84784)"/>
</clipPath>
</defs>
</svg>
