<svg width="141" height="48" viewBox="0 0 141 48" fill="none" xmlns="http://www.w3.org/2000/svg">
<circle cx="24" cy="24" r="24" fill="#FF0027"/>
<path d="M9.72472 25.807L11.9649 16.7447C12.6004 15.0174 13.7443 14.1538 15.3966 14.1538H26.4543L25.5606 17.7439H16.0281C15.9407 17.7439 15.8494 17.7787 15.754 17.8484C15.6587 17.9181 15.5912 18.0111 15.5515 18.1273L13.6926 25.6908C13.6688 25.838 13.7046 25.9658 13.7999 26.0742C13.8952 26.1827 14.0183 26.2369 14.1693 26.2369L23.4873 26.2485C23.2172 27.3406 22.9193 28.5334 22.5936 29.8269H13.1326C11.9013 29.7805 10.9798 29.3428 10.3682 28.5141C9.75649 27.6775 9.54201 26.7752 9.72472 25.807Z" fill="white"/>
<path d="M26.3027 36.5442L29.3304 24.4379H24.2154L25.0755 20.8711H38.769L37.8974 24.4379H32.943L29.9611 36.5442H26.3027Z" fill="white"/>
<path d="M70.268 20.448C70.396 20.448 70.508 20.5 70.604 20.604L71.528 21.6C70.824 22.416 69.968 23.052 68.96 23.508C67.96 23.964 66.748 24.192 65.324 24.192C64.092 24.192 62.972 23.98 61.964 23.556C60.956 23.124 60.096 22.524 59.384 21.756C58.672 20.98 58.12 20.052 57.728 18.972C57.336 17.892 57.14 16.704 57.14 15.408C57.14 14.112 57.344 12.924 57.752 11.844C58.16 10.764 58.732 9.836 59.468 9.06C60.212 8.284 61.1 7.684 62.132 7.26C63.164 6.828 64.304 6.612 65.552 6.612C66.776 6.612 67.856 6.808 68.792 7.2C69.728 7.592 70.552 8.124 71.264 8.796L70.496 9.864C70.448 9.944 70.384 10.012 70.304 10.068C70.232 10.116 70.132 10.14 70.004 10.14C69.86 10.14 69.684 10.064 69.476 9.912C69.268 9.752 68.996 9.576 68.66 9.384C68.324 9.192 67.904 9.02 67.4 8.868C66.896 8.708 66.276 8.628 65.54 8.628C64.652 8.628 63.84 8.784 63.104 9.096C62.368 9.4 61.732 9.844 61.196 10.428C60.668 11.012 60.256 11.724 59.96 12.564C59.664 13.404 59.516 14.352 59.516 15.408C59.516 16.48 59.668 17.436 59.972 18.276C60.284 19.116 60.704 19.828 61.232 20.412C61.768 20.988 62.396 21.428 63.116 21.732C63.844 22.036 64.628 22.188 65.468 22.188C65.98 22.188 66.44 22.16 66.848 22.104C67.264 22.04 67.644 21.944 67.988 21.816C68.34 21.688 68.664 21.528 68.96 21.336C69.264 21.136 69.564 20.9 69.86 20.628C69.996 20.508 70.132 20.448 70.268 20.448ZM82.1678 22.499L82.1583 24H73.7698V10.3865H82.1583V11.8875H75.6128V16.4095H80.9138V17.8535H75.6128V22.499H82.1678ZM92.4591 22.4515V24H84.7356V10.3865H86.5691V22.4515H92.4591ZM102.893 22.499L102.884 24H94.4953V10.3865H102.884V11.8875H96.3383V16.4095H101.639V17.8535H96.3383V22.499H102.893ZM110.24 22.537C110.765 22.537 111.218 22.4768 111.598 22.3565C111.978 22.2362 112.288 22.0683 112.529 21.853C112.776 21.6313 112.957 21.3717 113.071 21.074C113.185 20.77 113.242 20.4375 113.242 20.0765C113.242 19.3735 112.991 18.8193 112.491 18.414C111.991 18.0023 111.24 17.7965 110.24 17.7965H107.295V22.537H110.24ZM107.295 11.84V16.4855H109.727C110.246 16.4855 110.696 16.4285 111.076 16.3145C111.462 16.2005 111.779 16.0422 112.026 15.8395C112.279 15.6368 112.466 15.393 112.586 15.108C112.706 14.8167 112.767 14.5 112.767 14.158C112.767 13.3537 112.526 12.7678 112.045 12.4005C111.563 12.0268 110.816 11.84 109.803 11.84H107.295ZM109.803 10.3865C110.639 10.3865 111.357 10.4688 111.959 10.6335C112.567 10.7982 113.064 11.0325 113.451 11.3365C113.843 11.6405 114.131 12.0142 114.315 12.4575C114.499 12.8945 114.591 13.3885 114.591 13.9395C114.591 14.2752 114.537 14.5982 114.429 14.9085C114.328 15.2125 114.173 15.4975 113.964 15.7635C113.755 16.0295 113.489 16.2702 113.166 16.4855C112.849 16.6945 112.475 16.8655 112.045 16.9985C113.045 17.1885 113.796 17.5463 114.296 18.072C114.803 18.5913 115.056 19.2753 115.056 20.124C115.056 20.7003 114.948 21.226 114.733 21.701C114.524 22.176 114.214 22.5845 113.802 22.9265C113.397 23.2685 112.896 23.5345 112.301 23.7245C111.706 23.9082 111.028 24 110.268 24H105.461V10.3865H109.803ZM124.788 18.946L122.651 13.4075C122.587 13.2428 122.521 13.0528 122.451 12.8375C122.382 12.6158 122.315 12.3815 122.252 12.1345C122.119 12.6475 121.983 13.075 121.843 13.417L119.706 18.946H124.788ZM128.626 24H127.201C127.037 24 126.904 23.9588 126.802 23.8765C126.701 23.7942 126.625 23.6897 126.574 23.563L125.301 20.276H119.193L117.92 23.563C117.882 23.677 117.809 23.7783 117.701 23.867C117.594 23.9557 117.461 24 117.302 24H115.877L121.321 10.3865H123.183L128.626 24ZM138.141 22.4515V24H130.417V10.3865H132.251V22.4515H138.141ZM64.064 32.11H60.816V41H59.465V32.11H56.21V30.969H64.064V32.11ZM70.14 40.131L70.1345 41H65.278V33.1185H70.1345V33.9875H66.345V36.6055H69.414V37.4415H66.345V40.131H70.14ZM76.9877 39.372C77.0464 39.372 77.0977 39.3958 77.1417 39.4435L77.5652 39.9C77.2426 40.274 76.8502 40.5655 76.3882 40.7745C75.9299 40.9835 75.3744 41.088 74.7217 41.088C74.1571 41.088 73.6437 40.9908 73.1817 40.7965C72.7197 40.5985 72.3256 40.3235 71.9992 39.9715C71.6729 39.6158 71.4199 39.1905 71.2402 38.6955C71.0606 38.2005 70.9707 37.656 70.9707 37.062C70.9707 36.468 71.0642 35.9235 71.2512 35.4285C71.4382 34.9335 71.7004 34.5082 72.0377 34.1525C72.3787 33.7968 72.7857 33.5218 73.2587 33.3275C73.7317 33.1295 74.2542 33.0305 74.8262 33.0305C75.3872 33.0305 75.8822 33.1203 76.3112 33.3C76.7402 33.4797 77.1179 33.7235 77.4442 34.0315L77.0922 34.521C77.0702 34.5577 77.0409 34.5888 77.0042 34.6145C76.9712 34.6365 76.9254 34.6475 76.8667 34.6475C76.8007 34.6475 76.7201 34.6127 76.6247 34.543C76.5294 34.4697 76.4047 34.389 76.2507 34.301C76.0967 34.213 75.9042 34.1342 75.6732 34.0645C75.4422 33.9912 75.1581 33.9545 74.8207 33.9545C74.4137 33.9545 74.0416 34.026 73.7042 34.169C73.3669 34.3083 73.0754 34.5118 72.8297 34.7795C72.5877 35.0472 72.3989 35.3735 72.2632 35.7585C72.1276 36.1435 72.0597 36.578 72.0597 37.062C72.0597 37.5533 72.1294 37.9915 72.2687 38.3765C72.4117 38.7615 72.6042 39.0878 72.8462 39.3555C73.0919 39.6195 73.3797 39.8212 73.7097 39.9605C74.0434 40.0998 74.4027 40.1695 74.7877 40.1695C75.0224 40.1695 75.2332 40.1567 75.4202 40.131C75.6109 40.1017 75.7851 40.0577 75.9427 39.999C76.1041 39.9403 76.2526 39.867 76.3882 39.779C76.5276 39.6873 76.6651 39.5792 76.8007 39.4545C76.8631 39.3995 76.9254 39.372 76.9877 39.372ZM85.1879 33.1185V41H84.1209V37.414H79.8694V41H78.8024V33.1185H79.8694V36.633H84.1209V33.1185H85.1879ZM93.5883 33.1185V41H93.0548C92.9705 41 92.899 40.9853 92.8403 40.956C92.7853 40.9267 92.7303 40.8772 92.6753 40.8075L88.1158 34.8675C88.1231 34.9592 88.1286 35.049 88.1323 35.137C88.136 35.225 88.1378 35.3075 88.1378 35.3845V41H87.2028V33.1185H87.7528C87.8005 33.1185 87.8408 33.1222 87.8738 33.1295C87.9068 33.1332 87.9361 33.1423 87.9618 33.157C87.9875 33.168 88.0131 33.1863 88.0388 33.212C88.0645 33.234 88.092 33.2633 88.1213 33.3L92.6808 39.2345C92.6735 39.1392 92.6661 39.0475 92.6588 38.9595C92.6551 38.8678 92.6533 38.7817 92.6533 38.701V33.1185H93.5883ZM102.885 37.062C102.885 37.6523 102.792 38.195 102.605 38.69C102.418 39.1813 102.154 39.6048 101.813 39.9605C101.472 40.3162 101.061 40.593 100.581 40.791C100.104 40.9853 99.576 41.0825 98.9967 41.0825C98.4173 41.0825 97.8893 40.9853 97.4127 40.791C96.936 40.593 96.5272 40.3162 96.1862 39.9605C95.8452 39.6048 95.5812 39.1813 95.3942 38.69C95.2072 38.195 95.1137 37.6523 95.1137 37.062C95.1137 36.4717 95.2072 35.9308 95.3942 35.4395C95.5812 34.9445 95.8452 34.5192 96.1862 34.1635C96.5272 33.8042 96.936 33.5255 97.4127 33.3275C97.8893 33.1295 98.4173 33.0305 98.9967 33.0305C99.576 33.0305 100.104 33.1295 100.581 33.3275C101.061 33.5255 101.472 33.8042 101.813 34.1635C102.154 34.5192 102.418 34.9445 102.605 35.4395C102.792 35.9308 102.885 36.4717 102.885 37.062ZM101.791 37.062C101.791 36.578 101.725 36.1435 101.593 35.7585C101.461 35.3735 101.274 35.049 101.032 34.785C100.79 34.5173 100.496 34.312 100.152 34.169C99.807 34.026 99.422 33.9545 98.9967 33.9545C98.575 33.9545 98.1918 34.026 97.8472 34.169C97.5025 34.312 97.2073 34.5173 96.9617 34.785C96.7197 35.049 96.5327 35.3735 96.4007 35.7585C96.2687 36.1435 96.2027 36.578 96.2027 37.062C96.2027 37.546 96.2687 37.9805 96.4007 38.3655C96.5327 38.7468 96.7197 39.0713 96.9617 39.339C97.2073 39.603 97.5025 39.8065 97.8472 39.9495C98.1918 40.0888 98.575 40.1585 98.9967 40.1585C99.422 40.1585 99.807 40.0888 100.152 39.9495C100.496 39.8065 100.79 39.603 101.032 39.339C101.274 39.0713 101.461 38.7468 101.593 38.3655C101.725 37.9805 101.791 37.546 101.791 37.062ZM108.883 40.1035V41H104.412V33.1185H105.473V40.1035H108.883ZM116.979 37.062C116.979 37.6523 116.885 38.195 116.698 38.69C116.511 39.1813 116.247 39.6048 115.906 39.9605C115.565 40.3162 115.155 40.593 114.674 40.791C114.198 40.9853 113.67 41.0825 113.09 41.0825C112.511 41.0825 111.983 40.9853 111.506 40.791C111.03 40.593 110.621 40.3162 110.28 39.9605C109.939 39.6048 109.675 39.1813 109.488 38.69C109.301 38.195 109.207 37.6523 109.207 37.062C109.207 36.4717 109.301 35.9308 109.488 35.4395C109.675 34.9445 109.939 34.5192 110.28 34.1635C110.621 33.8042 111.03 33.5255 111.506 33.3275C111.983 33.1295 112.511 33.0305 113.09 33.0305C113.67 33.0305 114.198 33.1295 114.674 33.3275C115.155 33.5255 115.565 33.8042 115.906 34.1635C116.247 34.5192 116.511 34.9445 116.698 35.4395C116.885 35.9308 116.979 36.4717 116.979 37.062ZM115.884 37.062C115.884 36.578 115.818 36.1435 115.686 35.7585C115.554 35.3735 115.367 35.049 115.125 34.785C114.883 34.5173 114.59 34.312 114.245 34.169C113.901 34.026 113.516 33.9545 113.09 33.9545C112.669 33.9545 112.286 34.026 111.941 34.169C111.596 34.312 111.301 34.5173 111.055 34.785C110.813 35.049 110.626 35.3735 110.494 35.7585C110.362 36.1435 110.296 36.578 110.296 37.062C110.296 37.546 110.362 37.9805 110.494 38.3655C110.626 38.7468 110.813 39.0713 111.055 39.339C111.301 39.603 111.596 39.8065 111.941 39.9495C112.286 40.0888 112.669 40.1585 113.09 40.1585C113.516 40.1585 113.901 40.0888 114.245 39.9495C114.59 39.8065 114.883 39.603 115.125 39.339C115.367 39.0713 115.554 38.7468 115.686 38.3655C115.818 37.9805 115.884 37.546 115.884 37.062ZM124.908 37.2105V40.2355C124.512 40.5215 124.088 40.736 123.637 40.879C123.19 41.0183 122.698 41.088 122.163 41.088C121.529 41.088 120.957 40.9908 120.447 40.7965C119.937 40.5985 119.501 40.3235 119.138 39.9715C118.779 39.6158 118.502 39.1905 118.308 38.6955C118.113 38.2005 118.016 37.656 118.016 37.062C118.016 36.4607 118.11 35.9125 118.297 35.4175C118.487 34.9225 118.757 34.499 119.105 34.147C119.453 33.7913 119.877 33.5163 120.376 33.322C120.874 33.1277 121.432 33.0305 122.048 33.0305C122.359 33.0305 122.649 33.0543 122.917 33.102C123.184 33.146 123.432 33.212 123.659 33.3C123.886 33.3843 124.097 33.4888 124.292 33.6135C124.486 33.7345 124.667 33.872 124.836 34.026L124.534 34.51C124.486 34.5833 124.424 34.631 124.347 34.653C124.273 34.6713 124.191 34.653 124.099 34.598C124.011 34.5467 123.91 34.4843 123.797 34.411C123.683 34.3377 123.544 34.268 123.379 34.202C123.217 34.1323 123.025 34.0737 122.801 34.026C122.581 33.9783 122.319 33.9545 122.015 33.9545C121.571 33.9545 121.169 34.0278 120.81 34.1745C120.451 34.3175 120.145 34.5247 119.892 34.796C119.639 35.0637 119.444 35.39 119.309 35.775C119.173 36.1563 119.105 36.5853 119.105 37.062C119.105 37.557 119.175 38.0007 119.314 38.393C119.457 38.7817 119.659 39.1135 119.919 39.3885C120.183 39.6598 120.502 39.867 120.876 40.01C121.25 40.153 121.67 40.2245 122.136 40.2245C122.502 40.2245 122.827 40.1842 123.109 40.1035C123.395 40.0192 123.674 39.9037 123.945 39.757V38.0245H122.719C122.649 38.0245 122.592 38.0043 122.548 37.964C122.508 37.9237 122.488 37.8742 122.488 37.8155V37.2105H124.908ZM127.608 41H126.541V33.1185H127.608V41ZM134.486 40.131L134.48 41H129.624V33.1185H134.48V33.9875H130.691V36.6055H133.76V37.4415H130.691V40.131H134.486ZM140.004 34.3505C139.971 34.4055 139.934 34.4477 139.894 34.477C139.857 34.5027 139.811 34.5155 139.756 34.5155C139.694 34.5155 139.621 34.4843 139.536 34.422C139.452 34.3597 139.346 34.2918 139.217 34.2185C139.093 34.1415 138.94 34.0718 138.761 34.0095C138.585 33.9472 138.37 33.916 138.117 33.916C137.879 33.916 137.668 33.949 137.485 34.015C137.305 34.0773 137.153 34.1635 137.028 34.2735C136.907 34.3835 136.816 34.5137 136.753 34.664C136.691 34.8107 136.66 34.9702 136.66 35.1425C136.66 35.3625 136.713 35.5458 136.819 35.6925C136.929 35.8355 137.072 35.9583 137.248 36.061C137.428 36.1637 137.63 36.2535 137.853 36.3305C138.081 36.4038 138.312 36.4808 138.546 36.5615C138.785 36.6422 139.016 36.7338 139.239 36.8365C139.467 36.9355 139.668 37.062 139.844 37.216C140.024 37.37 140.167 37.5588 140.273 37.7825C140.383 38.0062 140.438 38.2812 140.438 38.6075C140.438 38.9522 140.38 39.2767 140.262 39.581C140.145 39.8817 139.973 40.1438 139.745 40.3675C139.522 40.5912 139.245 40.7672 138.915 40.8955C138.588 41.0238 138.216 41.088 137.798 41.088C137.285 41.088 136.819 40.9963 136.401 40.813C135.983 40.626 135.626 40.3748 135.329 40.0595L135.637 39.5535C135.666 39.5132 135.701 39.4802 135.741 39.4545C135.785 39.4252 135.833 39.4105 135.884 39.4105C135.932 39.4105 135.985 39.4307 136.044 39.471C136.106 39.5077 136.176 39.5553 136.253 39.614C136.33 39.6727 136.418 39.7368 136.517 39.8065C136.616 39.8762 136.728 39.9403 136.852 39.999C136.981 40.0577 137.125 40.1072 137.287 40.1475C137.448 40.1842 137.63 40.2025 137.831 40.2025C138.084 40.2025 138.31 40.1677 138.508 40.098C138.706 40.0283 138.873 39.9312 139.008 39.8065C139.148 39.6782 139.254 39.526 139.327 39.35C139.401 39.174 139.437 38.9778 139.437 38.7615C139.437 38.5232 139.382 38.3288 139.272 38.1785C139.166 38.0245 139.025 37.8962 138.849 37.7935C138.673 37.6908 138.471 37.6047 138.244 37.535C138.016 37.4617 137.785 37.3883 137.551 37.315C137.316 37.238 137.085 37.15 136.858 37.051C136.63 36.952 136.429 36.8237 136.253 36.666C136.077 36.5083 135.934 36.3122 135.824 36.0775C135.717 35.8392 135.664 35.5458 135.664 35.1975C135.664 34.9188 135.717 34.6493 135.824 34.389C135.934 34.1287 136.091 33.8977 136.297 33.696C136.506 33.4943 136.761 33.333 137.061 33.212C137.366 33.091 137.714 33.0305 138.106 33.0305C138.546 33.0305 138.946 33.1002 139.305 33.2395C139.668 33.3788 139.987 33.5805 140.262 33.8445L140.004 34.3505Z" fill="black"/>
</svg>
